<?xml version="1.0" encoding="utf-8"?>
<!-- Generator: Adobe Illustrator 23.0.1, SVG Export Plug-In . SVG Version: 6.00 Build 0)  -->
<svg version="1.1" id="Layer_1" xmlns="http://www.w3.org/2000/svg" xmlns:xlink="http://www.w3.org/1999/xlink" x="0px" y="0px"
	 viewBox="0 0 150.7 19.8" style="enable-background:new 0 0 150.7 19.8;" xml:space="preserve">
<style type="text/css">
	.st0{fill:#FFB551;}
	.st1{fill:#FF8026;}
	.st2{fill:#FF472E;}
	.st3{fill:#FFFFFF;}
</style>
<g>
	<path class="st0" d="M22.8,2.9H4.1C3.9,2.9,3.7,3,3.6,3.1c0,0.1-0.1,0.2-0.1,0.4v1c0,0.2,0.1,0.4,0.3,0.5C3.9,5,4,5,4.1,5h18.7
		c0.2,0,0.3,0,0.4-0.1s0.2-0.2,0.2-0.4v-1c0-0.1,0-0.3-0.1-0.4C23.1,3,23,2.9,22.8,2.9z"/>
	<path class="st1" d="M22.8,9.3H4.1c-0.2,0-0.3,0.1-0.4,0.2C3.6,9.6,3.5,9.7,3.5,9.9v1c0,0.2,0.1,0.4,0.3,0.5
		c0.1,0.1,0.2,0.1,0.3,0.1h18.7c0.1,0,0.3-0.1,0.4-0.1c0.1-0.1,0.2-0.2,0.2-0.4v-1c0-0.1,0-0.3-0.1-0.4C23.1,9.4,23,9.3,22.8,9.3z"
		/>
	<path class="st2" d="M22.8,15.7H4.1c-0.2,0-0.3,0.1-0.4,0.2c-0.1,0.1-0.1,0.2-0.1,0.3v1c0,0.2,0.1,0.4,0.3,0.5
		c0.1,0.1,0.2,0.1,0.3,0.1h18.7c0.1,0,0.3-0.1,0.4-0.1c0.1-0.1,0.2-0.2,0.2-0.4v-1c0-0.1,0-0.3-0.1-0.4C23.1,15.8,23,15.7,22.8,15.7
		z"/>
</g>
<g>
	<path class="st3" d="M33.4,17.3V3.5c0-0.3,0.3-0.6,0.6-0.6h8.9c0.3,0,0.6,0.3,0.6,0.6v1c0,0.3-0.3,0.6-0.6,0.6h-7v4.6h6.5
		c0.3,0,0.6,0.3,0.6,0.6v1c0,0.3-0.3,0.6-0.6,0.6h-6.5v5.6c0,0.3-0.3,0.6-0.6,0.6H34C33.6,17.8,33.4,17.6,33.4,17.3z"/>
	<path class="st3" d="M56.9,17.8h-0.8c-0.3,0-0.6-0.2-0.7-0.5l-1.1-2.8h-6.7l-1,2.8c-0.1,0.3-0.4,0.5-0.7,0.5h-0.8
		c-0.5,0-0.9-0.5-0.7-1l5-13.4c0.1-0.3,0.4-0.5,0.7-0.5H52c0.3,0,0.6,0.2,0.7,0.5l5,13.4C57.8,17.3,57.5,17.8,56.9,17.8z M51,4.7
		l-2.7,7.8h5.4L51,4.7z"/>
	<path class="st3" d="M66.2,17.8h-2.1c-0.3,0-0.6-0.2-0.7-0.5L58.7,3.9c-0.2-0.5,0.2-1,0.7-1H60c0.5,0,0.9,0.3,1,0.7l4.1,12.1
		l4.1-12.1c0.2-0.4,0.6-0.7,1-0.7h0.6c0.5,0,0.9,0.5,0.7,1l-4.7,13.4C66.8,17.6,66.6,17.8,66.2,17.8z"/>
	<path class="st3" d="M75.1,3.7c0-0.4,0.3-0.8,0.8-0.8h8.4c0.4,0,0.7,0.3,0.7,0.7v0.7C85,4.7,84.7,5,84.3,5h-6.8v4.2h6.2
		c0.4,0,0.7,0.3,0.7,0.7v0.7c0,0.4-0.3,0.7-0.7,0.7h-6.2v4.4h6.8c0.4,0,0.7,0.3,0.7,0.7v0.7c0,0.4-0.3,0.7-0.7,0.7h-8.4
		c-0.4,0-0.8-0.4-0.8-0.8V3.7L75.1,3.7z"/>
	<path class="st3" d="M111.7,12.9h-4.1v4.2c0,0.4-0.3,0.8-0.8,0.8h-0.9c-0.4,0-0.8-0.4-0.8-0.8V4.3c0-0.8,0.6-1.4,1.4-1.4h5.3
		c3.6,0,4.7,1.5,4.7,3.8v2.4c0,1.7-0.6,3-2.3,3.5l2.8,4.2c0.3,0.5,0,1.1-0.6,1.1h-1.2c-0.2,0-0.4-0.1-0.5-0.3L111.7,12.9z
		 M107.6,10.8h4.4c1.7,0,2.1-0.6,2.1-1.9V7c0-1.3-0.4-1.9-2.1-1.9h-4.4V10.8z"/>
	<path class="st3" d="M132.4,2.9c0.4,0,0.7,0.3,0.7,0.7v9.9c0,2.5-1.5,4.6-6,4.6s-6-2.1-6-4.6V3.6c0-0.4,0.3-0.7,0.7-0.7h1
		c0.4,0,0.7,0.3,0.7,0.7v9.7c0,1.7,0.9,2.6,3.6,2.6c2.7,0,3.6-0.9,3.6-2.6V3.6c0-0.4,0.3-0.7,0.7-0.7C131.4,2.9,132.4,2.9,132.4,2.9
		z"/>
	<path class="st3" d="M143.7,2.9c3.6,0,4.7,1.5,4.7,3.8v2.4c0,2.4-1.1,3.8-4.7,3.8h-3.9V17c0,0.4-0.3,0.8-0.8,0.8h-0.9
		c-0.4,0-0.8-0.3-0.8-0.8V3.7c0-0.4,0.3-0.8,0.8-0.8H143.7L143.7,2.9z M139.8,10.9h4.1c1.7,0,2.1-0.6,2.1-1.9V7
		c0-1.3-0.4-1.9-2.1-1.9h-4.1V10.9z"/>
	<path class="st3" d="M99.6,10.9h-0.5l0,0h-2.7c-0.4,0-0.4,0.4-0.4,0.4v1l2.1,0.5v2.9C97.2,15.9,96.2,16,95,16
		c-2.6,0-3.2-0.8-3.2-2.6v-6c0-2.1,0.8-2.6,3.4-2.6c1.1,0,2.5,0.1,3.8,0.3c0.4,0.1,0.8-0.3,0.9-0.7l0.1-0.6c0-0.4-0.2-0.8-0.6-0.8
		c-1.3-0.2-2.7-0.3-4-0.3c-4.3,0-6,1.3-6,4.5v6.5c0,2.9,1.4,4.5,5.7,4.5c1.3,0,3.2-0.2,4.8-0.6c0.3-0.1,0.6-0.4,0.6-0.8v-5.1
		C100.4,11.2,100.1,10.9,99.6,10.9z"/>
</g>
</svg>
